<svg width="16" height="16" viewBox="0 0 16 16" fill="none" xmlns="http://www.w3.org/2000/svg">
<path opacity="0.4" d="M12 12.5733H11.4933C10.96 12.5733 10.4533 12.78 10.08 13.1533L8.94 14.28C8.42 14.7933 7.57333 14.7933 7.05333 14.28L5.91333 13.1533C5.54 12.78 5.02667 12.5733 4.5 12.5733H4C2.89333 12.5733 2 11.6867 2 10.5934V3.32001C2 2.22667 2.89333 1.34003 4 1.34003H12C13.1067 1.34003 14 2.22667 14 3.32001V10.5934C14 11.68 13.1067 12.5733 12 12.5733Z" fill="#292D32"/>
<path d="M6.92016 9.67332H5.13348C4.84015 9.67332 4.56682 9.53331 4.39348 9.29331C4.22682 9.06665 4.18682 8.78667 4.26682 8.52C4.50015 7.80667 5.07348 7.41997 5.58015 7.0733C6.11348 6.7133 6.41348 6.48666 6.41348 6.1C6.41348 5.75333 6.13348 5.47333 5.78681 5.47333C5.44015 5.47333 5.16016 5.75333 5.16016 6.1C5.16016 6.37333 4.93349 6.6 4.66016 6.6C4.38682 6.6 4.16016 6.37333 4.16016 6.1C4.16016 5.20666 4.88681 4.47333 5.78681 4.47333C6.68681 4.47333 7.41348 5.2 7.41348 6.1C7.41348 7.04 6.70682 7.51997 6.14016 7.90664C5.78682 8.14664 5.45348 8.37332 5.28681 8.67332H6.91348C7.18682 8.67332 7.41348 8.89999 7.41348 9.17332C7.41348 9.44665 7.19349 9.67332 6.92016 9.67332Z" fill="#292D32"/>
<path d="M10.6936 9.67334C10.4202 9.67334 10.1936 9.44667 10.1936 9.17334V8.71334H8.88691C8.88691 8.71334 8.88692 8.71334 8.88025 8.71334C8.55358 8.71334 8.25358 8.54001 8.08691 8.26001C7.92025 7.97334 7.92025 7.62 8.08691 7.34C8.54025 6.56 9.06692 5.67332 9.54692 4.89998C9.76025 4.55998 10.1669 4.40668 10.5469 4.51334C10.9269 4.62668 11.1936 4.97333 11.1869 5.37333V7.72001H11.3336C11.6069 7.72001 11.8336 7.94668 11.8336 8.22001C11.8336 8.49334 11.6069 8.72001 11.3336 8.72001H11.1936V9.18001C11.1936 9.45334 10.9736 9.67334 10.6936 9.67334ZM10.1936 5.76001C9.80024 6.40001 9.39357 7.08667 9.02691 7.71334H10.1936V5.76001Z" fill="#292D32"/>
</svg>
