<svg width="16" height="16" viewBox="0 0 16 16" fill="none" xmlns="http://www.w3.org/2000/svg">
<path opacity="0.4" d="M8.82682 1.33334C9.14016 1.33334 9.40016 1.58667 9.40016 1.90667V14.1C9.40016 14.4133 9.14682 14.6733 8.82682 14.6733C4.90016 14.6733 2.16016 11.9333 2.16016 8.00667C2.16016 4.08 4.90682 1.33334 8.82682 1.33334Z" fill="#292D32"/>
<path d="M13.6934 7.69333L11.8001 5.79333C11.6068 5.6 11.2868 5.6 11.0934 5.79333C10.9001 5.98666 10.9001 6.30666 11.0934 6.5L12.1334 7.54H5.75342C5.48008 7.54 5.25342 7.76666 5.25342 8.04C5.25342 8.31333 5.48008 8.54 5.75342 8.54H12.1334L11.0934 9.58C10.9001 9.77333 10.9001 10.0933 11.0934 10.2867C11.1934 10.3867 11.3201 10.4333 11.4468 10.4333C11.5734 10.4333 11.7001 10.3867 11.8001 10.2867L13.6934 8.38666C13.8868 8.2 13.8868 7.88666 13.6934 7.69333Z" fill="#292D32"/>
</svg>
