<svg width="16" height="16" viewBox="0 0 16 16" fill="none" xmlns="http://www.w3.org/2000/svg">
<path opacity="0.4" d="M12.6267 3.61336L9.18005 1.62002C8.52005 1.24002 7.48672 1.24002 6.82672 1.62002L3.34672 3.62669C1.96672 4.56002 1.88672 4.70002 1.88672 6.18669V9.80669C1.88672 11.2934 1.96672 11.44 3.37339 12.3867L6.82005 14.38C7.15339 14.5734 7.58005 14.6667 8.00005 14.6667C8.42005 14.6667 8.84672 14.5734 9.17339 14.38L12.6534 12.3734C14.0334 11.44 14.1134 11.3 14.1134 9.81335V6.18669C14.1134 4.70002 14.0334 4.56002 12.6267 3.61336Z" fill="#292D32"/>
<path d="M8.00016 10.1666C9.19678 10.1666 10.1668 9.1966 10.1668 7.99998C10.1668 6.80336 9.19678 5.83331 8.00016 5.83331C6.80355 5.83331 5.8335 6.80336 5.8335 7.99998C5.8335 9.1966 6.80355 10.1666 8.00016 10.1666Z" fill="#292D32"/>
</svg>
