<svg width="16" height="16" viewBox="0 0 16 16" fill="none" xmlns="http://www.w3.org/2000/svg">
<path opacity="0.4" d="M10.7935 1.33331H5.20683C2.78016 1.33331 1.3335 2.77998 1.3335 5.20665V10.7866C1.3335 13.22 2.78016 14.6666 5.20683 14.6666H10.7868C13.2135 14.6666 14.6602 13.22 14.6602 10.7933V5.20665C14.6668 2.77998 13.2202 1.33331 10.7935 1.33331Z" fill="#292D32"/>
<path d="M10.5 6.5H5.5C5.22667 6.5 5 6.27333 5 6C5 5.72667 5.22667 5.5 5.5 5.5H10.5C10.7733 5.5 11 5.72667 11 6C11 6.27333 10.7733 6.5 10.5 6.5Z" fill="#292D32"/>
<path d="M10.5 10.5H5.5C5.22667 10.5 5 10.2733 5 10C5 9.72667 5.22667 9.5 5.5 9.5H10.5C10.7733 9.5 11 9.72667 11 10C11 10.2733 10.7733 10.5 10.5 10.5Z" fill="#292D32"/>
</svg>
