<svg width="16" height="16" viewBox="0 0 16 16" fill="none" xmlns="http://www.w3.org/2000/svg">
<path opacity="0.4" d="M13.8868 5.33999L9.52014 1.84666C8.6668 1.16666 7.33347 1.15999 6.4868 1.83999L2.12014 5.33999C1.49347 5.83999 1.11347 6.83999 1.2468 7.62666L2.0868 12.6533C2.28014 13.78 3.3268 14.6667 4.4668 14.6667H11.5335C12.6601 14.6667 13.7268 13.76 13.9201 12.6467L14.7601 7.61999C14.8801 6.83999 14.5001 5.83999 13.8868 5.33999Z" fill="#292D32"/>
<path d="M8 12.5C7.72667 12.5 7.5 12.2733 7.5 12V10C7.5 9.72667 7.72667 9.5 8 9.5C8.27333 9.5 8.5 9.72667 8.5 10V12C8.5 12.2733 8.27333 12.5 8 12.5Z" fill="#292D32"/>
</svg>
